<svg width="82" height="56" viewBox="0 0 82 56" fill="none" xmlns="http://www.w3.org/2000/svg">
<rect width="82" height="56" rx="7" fill="#DDDDDD"/>
<path d="M52.018 16H30.6645C30.2975 16 30 16.306 30 16.6835V38.6471C30 39.0246 30.2975 39.3306 30.6645 39.3306H52.018C52.385 39.3306 52.6825 39.0246 52.6825 38.6471V16.6835C52.6825 16.306 52.385 16 52.018 16ZM51.3535 37.9636H31.3291V17.367H51.3535V37.9636Z" fill="#535353" stroke="#535353" stroke-width="0.8"/>
<path d="M41.1023 21.5693C40.9787 21.4094 40.8073 21.3176 40.6323 21.3176C40.4573 21.3176 40.2863 21.4094 40.1627 21.5693C40.0387 21.7298 39.9678 21.951 39.9678 22.1774C39.9678 22.4038 40.0387 22.6251 40.1627 22.7855C40.2863 22.9454 40.4578 23.0371 40.6323 23.0371C40.8073 23.0371 40.9783 22.9454 41.1023 22.7855C41.2259 22.625 41.2968 22.4038 41.2968 22.1774C41.2968 21.951 41.2259 21.7297 41.1023 21.5693Z" fill="#535353" stroke="#535353" stroke-width="0.2"/>
<path d="M44.6386 21.5693C44.515 21.4094 44.3435 21.3176 44.1689 21.3176C43.9939 21.3176 43.8225 21.4094 43.6989 21.5693C43.5753 21.7298 43.5044 21.951 43.5044 22.1774C43.5044 22.4038 43.5753 22.6251 43.6989 22.7855C43.8225 22.9454 43.9939 23.0371 44.1689 23.0371C44.3435 23.0371 44.515 22.9454 44.6386 22.7855C44.7622 22.625 44.8334 22.4038 44.8334 22.1774C44.8334 21.951 44.7622 21.7297 44.6386 21.5693Z" fill="#535353" stroke="#535353" stroke-width="0.2"/>
<path d="M48.2171 21.5702C48.0931 21.4102 47.9221 21.3185 47.7471 21.3185C47.5721 21.3185 47.4011 21.4102 47.277 21.5702C47.1534 21.7306 47.0825 21.9519 47.0825 22.1782C47.0825 22.4046 47.1534 22.6259 47.277 22.7863C47.4011 22.9463 47.5721 23.0379 47.7471 23.0379C47.9221 23.0379 48.0931 22.9462 48.2171 22.7863C48.3407 22.6258 48.4116 22.4046 48.4116 22.1782C48.4116 21.9519 48.3407 21.7306 48.2171 21.5702Z" fill="#535353" stroke="#535353" stroke-width="0.2"/>
<path d="M47.7422 32.0615H34.9302C34.5632 32.0615 34.2656 32.4465 34.2656 32.9213C34.2656 33.3961 34.5632 33.781 34.9302 33.781H47.7422C48.1092 33.781 48.4068 33.3961 48.4068 32.9213C48.4068 32.4465 48.1092 32.0615 47.7422 32.0615Z" fill="#535353" stroke="#535353" stroke-width="0.2"/>
<path d="M47.7422 26.536H34.9302C34.5632 26.536 34.2656 26.9209 34.2656 27.3957C34.2656 27.8705 34.5632 28.2555 34.9302 28.2555H47.7422C48.1092 28.2555 48.4068 27.8705 48.4068 27.3957C48.4068 26.9209 48.1092 26.536 47.7422 26.536Z" fill="#535353" stroke="#535353" stroke-width="0.2"/>
</svg>
